<svg xmlns="http://www.w3.org/2000/svg" width="720" height="360" viewBox="0 0 720 360" font-family="-apple-system, Segoe UI, Roboto, sans-serif">
  <style>
    .slab { fill: #1b1b1d; }
    .key  { fill: #2b2b2e; stroke: #3a3a3e; stroke-width: 1.5; }
    .klbl { fill: #e6e6e6; font-size: 20px; font-weight: 600; text-anchor: middle; }
    .dialring { fill: none; stroke: #12cbb4; stroke-width: 8; }
    .dialhub  { fill: #2b2b2e; }
    .dlbl { fill: #e6e6e6; font-size: 15px; font-weight: 600; text-anchor: middle; }
  </style>

  <rect class="slab" x="8" y="8" width="704" height="344" rx="34"/>

  <!-- dial -->
  <circle class="dialring" cx="120" cy="180" r="66"/>
  <circle class="dialhub" cx="120" cy="180" r="30"/>
  <text class="dlbl" x="120" y="185">DIAL</text>

  <!-- key grid: top row K1 K2 K3, tall K7; mid K4 K5 K6; bottom K8, wide K9, K10 -->
  <rect class="key" x="250" y="40" width="90" height="70" rx="14"/>
  <text class="klbl" x="295" y="82">K1</text>
  <rect class="key" x="352" y="40" width="90" height="70" rx="14"/>
  <text class="klbl" x="397" y="82">K2</text>
  <rect class="key" x="454" y="40" width="90" height="70" rx="14"/>
  <text class="klbl" x="499" y="82">K3</text>
  <rect class="key" x="556" y="40" width="90" height="172" rx="14"/>
  <text class="klbl" x="601" y="132">K7</text>

  <rect class="key" x="250" y="122" width="90" height="70" rx="14"/>
  <text class="klbl" x="295" y="164">K4</text>
  <rect class="key" x="352" y="122" width="90" height="70" rx="14"/>
  <text class="klbl" x="397" y="164">K5</text>
  <rect class="key" x="454" y="122" width="90" height="70" rx="14"/>
  <text class="klbl" x="499" y="164">K6</text>

  <rect class="key" x="250" y="242" width="90" height="70" rx="14"/>
  <text class="klbl" x="295" y="284">K8</text>
  <rect class="key" x="352" y="242" width="192" height="70" rx="14"/>
  <text class="klbl" x="448" y="284">K9</text>
  <rect class="key" x="556" y="242" width="90" height="70" rx="14"/>
  <text class="klbl" x="601" y="284">K10</text>
</svg>
